<svg xmlns="http://www.w3.org/2000/svg" width="32" height="32" fill="none"><path fill="#fff" d="M26.733 14.667H5.267c-.7 0-1.267.567-1.267 1.266v.134c0 .7.567 1.266 1.267 1.266h21.466c.7 0 1.267-.567 1.267-1.266v-.134c0-.7-.567-1.266-1.267-1.266ZM26.733 21.333H5.267C4.567 21.333 4 21.9 4 22.6v.133c0 .7.567 1.267 1.267 1.267h21.466c.7 0 1.267-.567 1.267-1.267V22.6c0-.7-.567-1.267-1.267-1.267ZM26.733 8H5.267C4.567 8 4 8.567 4 9.267V9.4c0 .7.567 1.267 1.267 1.267h21.466c.7 0 1.267-.567 1.267-1.267v-.133C28 8.567 27.433 8 26.733 8Z"/></svg>