 <svg class="svg-icon" width="12" height="12" viewBox="0 0 12 12" xmlns="http://www.w3.org/2000/svg">
                    <path d="M3.96983 1.22704C3.82923 1.36768 3.75024 1.55841 3.75024 1.75729C3.75024 1.95616 3.82923 2.14689 3.96983 2.28754L7.68233 6.00004L3.96983 9.71254C3.83322 9.85399 3.75762 10.0434 3.75933 10.2401C3.76104 10.4367 3.83991 10.6248 3.97897 10.7639C4.11803 10.903 4.30614 10.9818 4.50278 10.9835C4.69943 10.9853 4.88888 10.9097 5.03033 10.773L9.27308 6.53029C9.41369 6.38964 9.49267 6.19891 9.49267 6.00004C9.49267 5.80116 9.41369 5.61043 9.27308 5.46979L5.03033 1.22704C4.88969 1.08643 4.69896 1.00745 4.50008 1.00745C4.30121 1.00745 4.11048 1.08643 3.96983 1.22704Z" />
                    </svg>