<svg width="36" height="36" viewBox="0 0 36 36" fill="none" xmlns="http://www.w3.org/2000/svg">
<path d="M15.9495 0.615261C11.4785 1.27831 7.79691 3.76068 6.4423 7.0112C6.01016 8.03811 5.89381 8.66881 5.89381 9.90595C5.90212 10.8197 5.93536 11.1593 6.07664 11.6525C6.36751 12.6228 6.57527 13.1161 7.00742 13.8114L7.40632 14.4583L6.95755 15.0082C3.40897 19.423 3.01837 25.633 5.97691 30.525C7.08221 32.3605 8.88559 34.1636 10.6474 35.2148L11.171 35.5221L18.3346 35.4655L25.5066 35.4008L25.8473 35.2148C27.0357 34.5437 28.7144 33.0478 29.6535 31.8349C31.0663 29.9913 31.9888 27.8405 32.3794 25.5117C32.5123 24.6789 32.5123 22.2127 32.3711 21.4284C31.9472 19.0107 31.0414 16.9407 29.612 15.1052C29.3377 14.7575 29.1217 14.4664 29.1217 14.4421C29.1217 14.426 29.2712 14.1753 29.4458 13.8923C29.853 13.2454 30.2186 12.4126 30.4181 11.6849C30.6425 10.8763 30.6425 8.85479 30.4181 8.0462C29.6203 5.17571 27.2269 2.78228 23.8445 1.46428C22.8971 1.09233 21.2765 0.696121 20.2294 0.566746C19.2571 0.453545 16.8554 0.477802 15.9495 0.615261ZM21.0106 1.93326C25.4484 2.79845 28.6978 5.51531 29.2962 8.86287C29.4291 9.61486 29.346 10.8924 29.1217 11.604C28.8973 12.2994 28.4818 13.1161 27.9914 13.8114C27.792 14.0944 27.6258 14.4179 27.6258 14.523C27.6258 14.6281 27.8003 14.903 28.0496 15.178C30.1272 17.4824 31.2242 20.3691 31.2242 23.4903C31.2159 27.04 29.853 30.153 27.2269 32.595C26.7781 33.0154 26.1382 33.541 25.7975 33.7674L25.1742 34.1879L18.3014 34.2121L11.4369 34.2445L10.905 33.9049C8.977 32.6516 7.24011 30.5816 6.27609 28.3822C5.06276 25.6007 4.9381 22.3744 5.92705 19.4797C6.45061 17.9757 7.14869 16.7466 8.21244 15.4529C8.64458 14.9354 8.84404 14.6281 8.84404 14.4826C8.84404 14.3613 8.62796 13.9651 8.34541 13.5527C7.34815 12.1053 6.94093 10.4962 7.18194 8.97608C7.43125 7.43976 8.12933 6.17836 9.41746 4.92504C11.0962 3.29978 13.4397 2.22435 16.1905 1.82006C17.3291 1.65026 19.8471 1.71494 21.0106 1.93326Z" fill="#131313"/>
<path d="M16.3233 3.35635C12.916 3.91428 10.2484 5.80638 9.37576 8.28875C9.17631 8.84668 9.14307 9.065 9.14307 9.8655C9.14307 10.666 9.17631 10.8843 9.37576 11.4422C9.50042 11.798 9.73311 12.2913 9.89101 12.5419C10.3232 13.2373 10.5143 13.2616 11.3703 12.7441C12.6501 11.9597 14.1211 11.3856 15.6502 11.0703C16.6807 10.8601 18.6586 10.7792 19.7805 10.9086C21.534 11.1107 23.4371 11.7414 24.9579 12.639C25.3901 12.8896 25.8306 13.0999 25.9386 13.0999C26.5702 13.0999 27.3763 11.2805 27.3763 9.8655C27.3763 6.72009 24.3679 4.02748 20.1046 3.35635C19.1988 3.21081 17.1959 3.21081 16.3233 3.35635ZM20.437 4.6501C21.8664 4.95736 23.1795 5.53955 24.1685 6.30771C25.4981 7.33461 26.2128 8.76582 26.0965 10.1485C26.0549 10.6983 25.8472 11.4422 25.7225 11.5231C25.6893 11.5393 25.2239 11.3452 24.692 11.0865C23.5867 10.5528 22.3318 10.1242 21.0603 9.84933C20.2874 9.68761 19.9633 9.66335 18.2348 9.67144C16.5311 9.67144 16.1737 9.6957 15.4341 9.84933C14.1543 10.1242 13.157 10.4639 11.9271 11.046C10.6888 11.6363 10.7553 11.6444 10.5309 10.9167C10.2401 9.97062 10.4229 8.7173 10.988 7.77125C11.2872 7.26993 12.1099 6.43708 12.7083 6.0247C13.8468 5.24037 14.8441 4.88459 16.9882 4.49646C17.4286 4.41561 19.8719 4.52881 20.437 4.6501Z" fill="#131313"/>
<path d="M19.0827 15.0808C18.85 15.3719 18.85 15.6468 19.091 15.8813C19.2489 16.0349 19.4068 16.0754 19.9802 16.1158C21.0938 16.1967 22.1576 16.5201 23.1133 17.0699C23.7947 17.4742 24.8335 18.4526 25.2989 19.1561C25.9887 20.1668 26.4624 21.6142 26.4624 22.6815C26.4624 23.0535 26.4956 23.1667 26.6702 23.3284C26.9361 23.5953 27.2851 23.5953 27.5428 23.3284C27.7256 23.1424 27.7339 23.0939 27.684 22.3015C27.4513 18.3879 24.1022 15.1212 20.0966 14.9029L19.2655 14.8544L19.0827 15.0808Z" fill="#131313"/>
</svg>
