<svg aria-hidden="true" style="position: absolute; width: 0; height: 0; overflow: hidden;" version="1.1" xmlns="http://www.w3.org/2000/svg" xmlns:xlink="http://www.w3.org/1999/xlink">
<defs>
<symbol id="icon-Logo" viewBox="0 0 30 32">
<path fill="#f8d24e" style="fill: var(--color1, #f8d24e)" d="M15.226 17.082c1.415-3.784-1.515-5.855-3.457-7.217-0.371-0.278-0.742-0.538-1.044-0.776-0.525-0.438-0.921-1.015-1.133-1.674l-0.007-0.026c-0.104-0.319-0.163-0.686-0.163-1.067 0-0.345 0.049-0.679 0.141-0.995l-0.006 0.025c0.009-0.031 0.014-0.067 0.014-0.105 0-0.115-0.050-0.219-0.129-0.29l-0-0c-0.071-0.065-0.167-0.105-0.272-0.105-0.049 0-0.096 0.009-0.14 0.025l0.003-0.001c-0.69 0.273-1.285 0.63-1.811 1.067l0.011-0.009c-0.512 0.391-0.925 0.885-1.215 1.452l-0.011 0.024c-0.277 0.541-0.44 1.18-0.442 1.857v0.001c-0.367 0.287-0.684 0.613-0.952 0.978l-0.010 0.014c-0.445 0.593-0.713 1.341-0.713 2.151 0 0.061 0.002 0.121 0.004 0.181l-0-0.008c-0.58 0.526-1.023 1.192-1.276 1.945l-0.009 0.032c-0.143 0.422-0.226 0.908-0.226 1.414 0 0.33 0.035 0.652 0.102 0.962l-0.005-0.030c-0.236 0.141-0.42 0.354-0.521 0.608-0.056 0.135-0.088 0.292-0.088 0.457 0 0.12 0.017 0.237 0.050 0.347l-0.002-0.009c0.075 0.262 0.235 0.493 0.456 0.657s0.49 0.252 0.767 0.25h0.026v2.151c0 0.219 0.089 0.428 0.245 0.583s0.369 0.241 0.591 0.241h0.65l1.058 9.040c0.022 0.201 0.118 0.387 0.271 0.522s0.351 0.21 0.556 0.21h4.404c0.206-0 0.404-0.075 0.557-0.21s0.251-0.32 0.275-0.522l1.058-9.040h0.65c0.222 0 0.434-0.087 0.591-0.241 0.151-0.148 0.244-0.354 0.245-0.582v-2.152h0.026c0.001 0 0.001 0 0.002 0 0.348 0 0.663-0.139 0.894-0.365l-0 0c0.237-0.234 0.371-0.551 0.371-0.883 0-0.004 0-0.009 0-0.014 0-0.343-0.142-0.654-0.371-0.875l-0-0-0.011 0.003zM5.695 10.216c0.535 1.98 2.599 2.759 4.482 3.455 0.060 0.037 0.134 0.059 0.212 0.059 0.109 0 0.207-0.042 0.281-0.111l-0 0c0.076-0.073 0.124-0.175 0.124-0.289 0-0.010-0-0.019-0.001-0.028l0 0.001c-0.009-0.123-0.072-0.229-0.166-0.295l-0.001-0.001c-0.046-0.033-0.101-0.057-0.16-0.068l-0.003-0c-2.027-0.758-3.939-1.464-4.084-3.488-0.004-0.061-0.006-0.131-0.006-0.203 0-0.514 0.116-1.001 0.324-1.436l-0.009 0.020c0.246-0.518 0.601-0.949 1.038-1.277l0.009-0.006c0.283-0.231 0.586-0.438 0.906-0.615-0.010 0.114-0.015 0.247-0.015 0.381s0.006 0.267 0.017 0.398l-0.001-0.017c0.047 0.615 0.216 1.181 0.484 1.686l-0.011-0.023c0.281 0.531 0.648 0.98 1.087 1.343l0.007 0.006c0.308 0.26 0.691 0.527 1.114 0.812 0.977 0.692 2.087 1.465 2.792 2.511 0.441 0.619 0.704 1.39 0.704 2.223 0 0.538-0.11 1.051-0.309 1.517l0.010-0.025h-1.641c-3.382 0-7.27-0.922-8.038-3.506-0.072-0.242-0.113-0.519-0.113-0.807 0-0.292 0.043-0.573 0.122-0.839l-0.005 0.021c0.164-0.551 0.468-1.018 0.87-1.377l0.003-0.003-0.019-0.018zM8.74 22.693l1.24 1.222-1.241 1.222-1.24-1.23 1.24-1.215zM11.584 25.903l-1.025 1.010-1.24-1.222 1.241-1.219 1.076 1.057-0.052 0.374zM8.74 28.706l-1.241-1.222 1.241-1.222 1.24 1.222-1.241 1.222zM8.172 25.698l-1.241 1.222-1.032-1.018-0.044-0.366 1.077-1.057 1.24 1.219zM6.36 27.484l-0.249 0.245-0.063-0.556 0.312 0.311zM6.23 28.735l0.702-0.692 1.363 1.354c0.007 0.028 0.016 0.054 0.026 0.081h-2.005l-0.086-0.743zM10.552 28.044l0.702 0.692-0.086 0.732h-2.060l1.444-1.424zM11.368 27.729l-0.249-0.245 0.316-0.311-0.067 0.556zM11.74 24.53l-0.62-0.622 0.787-0.776-0.167 1.398zM10.548 23.352l-1.177-1.156h2.354l-1.177 1.157zM6.928 23.352l-1.177-1.156h2.354l-1.177 1.157zM10.938 31.169h-4.4c-0.013-0.002-0.024-0.012-0.026-0.025l-0-0-0.104-0.879h4.664l-0.1 0.879c-0.002 0.015-0.014 0.026-0.029 0.026-0 0-0 0-0 0v0h-0.003zM14.343 18.418h-1.292c-0.011-0.001-0.025-0.002-0.038-0.002-0.105 0-0.201 0.039-0.273 0.104l0-0c-0.081 0.073-0.132 0.178-0.133 0.295v0c0 0 0 0 0 0 0 0.117 0.051 0.223 0.133 0.295l0 0c0.071 0.064 0.166 0.103 0.271 0.103 0.014 0 0.028-0.001 0.042-0.002l-0.002 0h0.46v2.152c-0.001 0.008-0.005 0.014-0.010 0.019l-0 0c-0.005 0.004-0.012 0.007-0.019 0.007-0 0-0.001 0-0.001 0h-9.494c-0 0-0 0-0.001 0-0.007 0-0.014-0.003-0.019-0.007l0 0c-0.005-0.005-0.009-0.011-0.010-0.019v-2.152h7.355c0.104-0.010 0.195-0.058 0.261-0.129l0-0c0.065-0.070 0.105-0.165 0.105-0.268s-0.040-0.198-0.105-0.269l0 0c-0.066-0.071-0.157-0.119-0.259-0.128l-0.002-0h-8.168c-0.012 0.001-0.026 0.002-0.041 0.002-0.12 0-0.229-0.045-0.312-0.119l0 0c-0.092-0.083-0.149-0.202-0.15-0.335v-0c0-0 0-0 0-0.001 0-0.133 0.058-0.252 0.149-0.334l0-0c0.082-0.074 0.191-0.119 0.31-0.119 0.015 0 0.029 0.001 0.044 0.002l-0.002-0h0.843c0.104-0.010 0.195-0.058 0.261-0.129l0-0c0.065-0.070 0.105-0.165 0.105-0.268s-0.040-0.198-0.105-0.269l0 0c-0.066-0.071-0.157-0.119-0.259-0.129l-0.002-0h-0.742c-0.044-0.218-0.069-0.469-0.069-0.726 0-0.339 0.044-0.667 0.125-0.981l-0.006 0.027c0.15-0.579 0.412-1.083 0.764-1.511l-0.005 0.007c0.26 0.798 0.928 1.889 2.599 2.756 1.57 0.808 3.65 1.222 6.178 1.222h1.485c0.012-0.001 0.027-0.002 0.041-0.002 0.12 0 0.229 0.045 0.311 0.119l-0-0c0.092 0.083 0.149 0.202 0.15 0.335v0c0 0 0 0.001 0 0.001 0 0.133-0.058 0.252-0.149 0.334l-0 0c-0.082 0.074-0.191 0.119-0.31 0.119-0.015 0-0.029-0.001-0.044-0.002l0.002 0h0.026z"></path>
<path fill="#f8d24e" style="fill: var(--color1, #f8d24e)" d="M16.964 29.152l-0.293 0.448 0.006 0.004 0.287-0.453zM20.113 29.304l0.535-0.012-0.014-0.62-0.611 0.104 0.090 0.528zM20.15 30.951l0.136 0.518 0.409-0.108-0.010-0.422-0.535 0.012zM16.017 31.030l0.121-0.522-0.003-0.001-0.117 0.523zM13.978 30.119l0.347-0.409h-0.001l-0.346 0.409zM13.24 28.446l0.536 0.003v-0.003h-0.536zM13.496 27.274l-0.48-0.236v0.001l0.48 0.235zM15.138 25.872l0.19 0.501 0.002-0.001-0.192-0.5zM20.401 25.736l0.534 0.041 0.035-0.452-0.44-0.109-0.129 0.52zM20.27 27.415l-0.099 0.526 0.587 0.111 0.046-0.596-0.534-0.042zM18.842 26.728c-0.804 0-1.48 0.086-1.973 0.303-0.253 0.111-0.483 0.268-0.651 0.489-0.159 0.209-0.255 0.473-0.255 0.76 0 0.005 0 0.010 0 0.015v-0.001h1.071c-0-0.004-0-0.008-0-0.013 0-0.043 0.014-0.083 0.038-0.115l-0 0c0.028-0.037 0.091-0.095 0.228-0.156 0.288-0.127 0.783-0.212 1.542-0.212v-1.072zM15.963 28.294c0 0.551 0.247 1.006 0.709 1.307l0.585-0.897c-0.16-0.103-0.223-0.221-0.223-0.409h-1.071zM16.677 29.604c0.438 0.277 1.015 0.381 1.663 0.381v-1.071c-0.559 0-0.899-0.095-1.089-0.215l-0.574 0.905zM18.34 29.985c0.635 0 1.256-0.051 1.863-0.154l-0.179-1.056c-0.5 0.088-1.077 0.139-1.665 0.139-0.007 0-0.013 0-0.020-0h0.001v1.071zM19.578 29.315l0.036 1.648 1.071-0.024-0.037-1.647-1.071 0.024zM20.013 30.433c-0.612 0.161-1.288 0.244-2.029 0.244v1.071c0.821 0 1.589-0.092 2.302-0.279l-0.273-1.036zM17.984 30.677c-0.757 0-1.369-0.060-1.846-0.169l-0.241 1.044c0.582 0.134 1.281 0.197 2.087 0.197v-1.071zM16.134 30.507c-0.511-0.114-0.881-0.236-1.127-0.356l-0.47 0.962c0.353 0.172 0.814 0.316 1.363 0.439l0.234-1.046zM15.008 30.151c-0.26-0.126-0.485-0.273-0.688-0.444l0.005 0.004-0.693 0.817c0.263 0.222 0.561 0.417 0.881 0.574l0.026 0.011 0.47-0.962zM14.323 29.71c-0.364-0.308-0.55-0.709-0.547-1.262l-1.071-0.005c-0.004 0.842 0.301 1.556 0.927 2.085l0.692-0.818zM13.776 28.446c0-0.36 0.070-0.669 0.202-0.936l-0.962-0.471c-0.211 0.43-0.311 0.902-0.311 1.407h1.071zM13.977 27.51c0.243-0.495 0.673-0.88 1.351-1.137l-0.38-1.002c-0.884 0.336-1.549 0.886-1.933 1.666l0.961 0.473zM15.331 26.372c0.712-0.273 1.507-0.414 2.392-0.414v-1.071c-0.999 0-1.926 0.159-2.776 0.485l0.384 1zM17.723 25.958c0.901 0 1.751 0.1 2.549 0.298l0.258-1.040c-0.89-0.221-1.826-0.33-2.807-0.33v1.071zM19.867 25.695l-0.13 1.679 1.068 0.084 0.131-1.679-1.068-0.083zM20.37 26.889c-0.557-0.105-1.068-0.161-1.528-0.161v1.071c0.377 0 0.818 0.046 1.328 0.142l0.199-1.053zM25.596 27.744l-0.003 0.536 0.544 0.003-0.005-0.544-0.536 0.005zM25.366 27.049l-0.364 0.393 0.005 0.004 0.359-0.397zM24.032 27.102l0.371 0.386 0.004-0.004-0.375-0.383zM23.708 27.734l-0.529-0.087-0.101 0.619 0.627 0.003 0.003-0.536zM27.646 30.59l0.324 0.427 0.192-0.146 0.018-0.241-0.534-0.039zM26.49 31.019l-0.115-0.523-0.003 0 0.118 0.523zM22.473 30.873l-0.182 0.504 0.004 0.001 0.178-0.505zM21.558 30.386l-0.332 0.42 0.003 0.002 0.003 0.002 0.326-0.425zM20.946 29.617l-0.48 0.237 0.001 0.002 0.479-0.24zM21.573 26.369v0zM26.469 25.788l0.214-0.49-0.005-0.002-0.209 0.493zM27.699 26.918l-0.482 0.234 0.001 0.003 0.48-0.237zM27.908 27.855l0.534 0.038 0.001-0.019v-0.020h-0.536zM27.845 28.718l-0.002 0.536 0.501 0.002 0.036-0.499-0.534-0.039zM23.603 28.697l0.003-0.536-0.699-0.003 0.178 0.676 0.518-0.137zM24.21 29.445l-0.263 0.466 0.002 0.001 0.261-0.468zM27.463 29.262v-0.536h-0.107l-0.098 0.041 0.206 0.495zM27.745 29.262l0.534 0.039 0.043-0.575h-0.577v0.536zM26.132 27.739c-0.004-0.387-0.094-0.803-0.406-1.087l-0.72 0.794c-0.006-0.005 0.006 0.001 0.021 0.047 0.016 0.049 0.032 0.131 0.033 0.257l1.071-0.011zM25.73 26.657c-0.281-0.261-0.65-0.347-1.013-0.347v1.071c0.208 0 0.272 0.050 0.284 0.061l0.729-0.785zM24.717 26.309c-0.399 0-0.77 0.125-1.060 0.409l0.75 0.766c0.059-0.058 0.144-0.103 0.31-0.103v-1.072zM23.661 26.715c-0.251 0.242-0.425 0.563-0.481 0.923l-0.001 0.009 1.057 0.174c0.025-0.149 0.081-0.252 0.166-0.334l-0.742-0.773zM23.705 28.27l1.889 0.010 0.006-1.071-1.889-0.011-0.006 1.071zM27.323 30.163c-0.118 0.089-0.404 0.213-0.948 0.333l0.23 1.046c0.565-0.125 1.050-0.287 1.365-0.525l-0.647-0.854zM26.372 30.497c-0.449 0.109-0.965 0.173-1.496 0.175h-0.002v1.071c0.566 0 1.145-0.068 1.735-0.202l-0.236-1.045zM24.874 30.672c-0.505 0-0.921-0.024-1.252-0.068l-0.143 1.062c0.394 0.053 0.861 0.078 1.395 0.078v-1.071zM23.622 30.603c-0.364-0.050-0.692-0.133-1.004-0.247l0.034 0.011-0.357 1.010c0.389 0.138 0.784 0.233 1.184 0.288l0.143-1.062zM22.656 30.369c-0.314-0.113-0.568-0.251-0.772-0.408l-0.652 0.85c0.305 0.234 0.661 0.42 1.058 0.565l0.365-1.007zM21.89 29.966c-0.194-0.158-0.351-0.354-0.461-0.578l-0.004-0.010-0.958 0.479c0.186 0.377 0.442 0.694 0.753 0.945l0.005 0.004 0.666-0.84zM21.426 29.38c-0.113-0.228-0.18-0.521-0.18-0.897h-1.071c0 0.502 0.090 0.965 0.29 1.372l0.96-0.475zM21.246 28.482c0-0.377 0.068-0.71 0.196-1.006l-0.983-0.426c-0.192 0.443-0.285 0.923-0.285 1.432h1.071zM21.442 27.477c0.135-0.311 0.3-0.542 0.487-0.707l-0.713-0.8c-0.322 0.287-0.572 0.653-0.757 1.082l0.983 0.426zM21.93 26.769c0.576-0.513 1.454-0.811 2.719-0.811v-1.071c-1.419 0-2.591 0.333-3.432 1.083l0.713 0.799zM24.649 25.958c0.568 0 1.104 0.108 1.611 0.323l0.418-0.986c-0.593-0.258-1.284-0.409-2.010-0.409-0.007 0-0.014 0-0.021 0h0.001v1.071zM26.255 26.279c0.474 0.207 0.78 0.5 0.961 0.873l0.963-0.468c-0.307-0.632-0.82-1.092-1.497-1.387l-0.428 0.982zM27.218 27.156c0.1 0.202 0.154 0.432 0.154 0.699h1.071c0-0.417-0.086-0.811-0.265-1.174l-0.96 0.474zM27.374 27.815l-0.063 0.863 1.068 0.078 0.063-0.863-1.068-0.077zM27.848 28.182l-4.242-0.021-0.005 1.071 4.242 0.021 0.005-1.071zM23.085 28.833c0.126 0.475 0.432 0.834 0.862 1.078l0.527-0.933c-0.212-0.12-0.31-0.258-0.352-0.418l-1.036 0.274zM23.948 29.912c0.434 0.243 0.978 0.34 1.585 0.34v-1.071c-0.509 0-0.848-0.084-1.062-0.204l-0.523 0.935zM25.533 30.252c0.651 0 1.367-0.176 2.136-0.496l-0.412-0.989c-0.688 0.287-1.26 0.414-1.724 0.414v1.071zM27.463 29.797h0.283v-1.071h-0.282v1.071zM27.212 29.221l-0.1 1.329 1.068 0.080 0.099-1.329-1.068-0.080z"></path>
</symbol>
<symbol id="icon--arrow-right-" viewBox="0 0 32 32">
<path d="M10.587 3.272c-0.361 0.362-0.585 0.861-0.585 1.413s0.223 1.051 0.585 1.413l9.899 9.901-9.899 9.899c-0.333 0.356-0.537 0.836-0.537 1.363 0 1.105 0.895 2 2 2 0.527 0 1.007-0.204 1.365-0.538l-0.001 0.001 11.315-11.312c0.361-0.362 0.585-0.861 0.585-1.413s-0.224-1.052-0.585-1.413l-11.315-11.315c-0.362-0.361-0.861-0.585-1.413-0.585s-1.052 0.224-1.413 0.585l0-0z"></path>
</symbol>
<symbol id="icon-menu-burger" viewBox="0 0 32 32">
<path fill="#fff" style="fill: var(--color3, #fff)" d="M26.733 14.667h-21.466c-0.7 0-1.267 0.567-1.267 1.266v0.134c0 0.7 0.567 1.266 1.267 1.266h21.466c0.7 0 1.267-0.567 1.267-1.266v-0.134c0-0.7-0.567-1.266-1.267-1.266zM26.733 21.333h-21.466c-0.7 0-1.267 0.567-1.267 1.267v0.133c0 0.7 0.567 1.267 1.267 1.267h21.466c0.7 0 1.267-0.567 1.267-1.267v-0.133c0-0.7-0.567-1.267-1.267-1.267zM26.733 8h-21.466c-0.7 0-1.267 0.567-1.267 1.267v0.133c0 0.7 0.567 1.267 1.267 1.267h21.466c0.7 0 1.267-0.567 1.267-1.267v-0.133c0-0.7-0.567-1.267-1.267-1.267z"></path>
</symbol>
<symbol id="icon-Menu-close" viewBox="0 0 32 32">
<path fill="#fcfcfc" style="fill: var(--color2, #fcfcfc)" d="M28.614 1.13l-12.614 12.614-12.614-12.614c-0.283-0.26-0.662-0.419-1.078-0.419-0.882 0-1.597 0.715-1.597 1.597 0 0.416 0.159 0.795 0.42 1.079l-0.001-0.001 12.608 12.614-12.611 12.611c-0.309 0.292-0.502 0.704-0.502 1.161 0 0.881 0.714 1.595 1.595 1.595 0.233 0 0.455-0.050 0.654-0.14l-0.010 0.004c0.202-0.089 0.375-0.211 0.518-0.361l0.001-0.001 12.618-12.611 12.614 12.614c0.283 0.26 0.662 0.419 1.078 0.419 0.882 0 1.597-0.715 1.597-1.597 0-0.416-0.159-0.795-0.42-1.079l0.001 0.001-12.614-12.614 12.614-12.618c0.289-0.289 0.468-0.688 0.468-1.13 0-0.882-0.715-1.596-1.596-1.596-0.44 0-0.839 0.178-1.128 0.467l0-0v0.003z"></path>
</symbol>
<symbol id="circle-up" viewBox="0 0 30 30">
<path d="M0 15c0 8.284 6.716 15 15 15s15-6.716 15-15-6.716-15-15-15-15 6.716-15 15zM27.188 15c0 6.731-5.457 12.188-12.188 12.188s-12.188-5.457-12.188-12.188 5.457-12.188 12.188-12.188 12.188 5.457 12.188 12.188z"></path>
<path d="M20.705 19.607l2.652-2.652-8.357-8.357-8.357 8.357 2.652 2.652 5.705-5.705z"></path>
</symbol>
<symbol id="arrow" viewBox="0 0 82 32">
<path d="M81.414 17.414c0.362-0.362 0.586-0.862 0.586-1.414s-0.224-1.052-0.586-1.414l-12.728-12.728c-0.364-0.377-0.874-0.611-1.439-0.611-1.105 0-2 0.895-2 2 0 0.565 0.234 1.074 0.61 1.438l0.001 0.001 11.314 11.314-11.314 11.314c-0.347 0.359-0.561 0.849-0.561 1.389 0 1.105 0.895 2 2 2 0.54 0 1.030-0.214 1.39-0.562l-0.001 0.001 12.728-12.728zM0 18h80v-4h-80v4z"></path>
</symbol>
<symbol id="close" viewBox="0 0 32 32">
<path d="M17.253 16l7.369-7.369c0.131-0.154 0.21-0.355 0.21-0.574 0-0.491-0.398-0.889-0.889-0.889-0.22 0-0.42 0.080-0.576 0.211l0.001-0.001-7.369 7.369-7.369-7.377c-0.164-0.18-0.399-0.292-0.661-0.292-0.493 0-0.893 0.4-0.893 0.893 0 0.261 0.112 0.496 0.291 0.659l0.001 0.001 7.379 7.369-7.379 7.369c-0.193 0.164-0.315 0.407-0.315 0.679 0 0.491 0.398 0.889 0.889 0.889 0.272 0 0.515-0.122 0.678-0.314l0.001-0.001 7.379-7.369 7.368 7.369c0.154 0.131 0.355 0.21 0.574 0.21 0.491 0 0.889-0.398 0.889-0.889 0-0.22-0.080-0.42-0.211-0.576l0.001 0.001-7.368-7.369z"></path>
</symbol>
<symbol id="icon-telegram" viewBox="0 0 44 32">
<path d="M17.343 21.048l-0.675 8.86c0.966 0 1.384-0.387 1.885-0.852l4.527-4.038 9.381 6.412c1.72 0.895 2.933 0.424 3.397-1.477l6.157-26.929 0.002-0.002c0.546-2.374-0.92-3.302-2.596-2.72l-36.194 12.933c-2.47 0.895-2.433 2.18-0.42 2.762l9.253 2.686 21.494-12.552c1.012-0.625 1.931-0.279 1.175 0.346l-17.386 14.57z"></path>
</symbol>
<symbol id="icon-git_hab" viewBox="0 0 32 32">
<path d="M16 0c-8.788 0-16 7.212-16 16 0 7.499 5.262 14.312 12.25 16v-5.293c-0.692 0.152-1.33 0.156-2.034-0.052-0.946-0.279-1.714-0.909-2.284-1.869-0.364-0.613-1.008-1.278-1.68-1.23l-0.165-1.868c1.453-0.124 2.711 0.886 3.457 2.14 0.332 0.558 0.713 0.884 1.203 1.029 0.473 0.14 0.982 0.072 1.574-0.137 0.149-1.186 0.692-1.63 1.102-2.255v-0.001c-4.167-0.622-5.828-2.832-6.488-4.578-0.874-2.317-0.405-5.212 1.14-7.041 0.030-0.036 0.084-0.129 0.063-0.194-0.708-2.139 0.155-3.909 0.187-4.097 0.817 0.242 0.95-0.243 3.551 1.337l0.449 0.27c0.188 0.112 0.129 0.048 0.317 0.034 1.086-0.295 2.23-0.458 3.358-0.472 1.136 0.015 2.273 0.178 3.404 0.484l0.145 0.015c-0.013-0.002 0.040-0.009 0.127-0.062 3.248-1.968 3.132-1.324 4.003-1.608 0.032 0.188 0.883 1.987 0.182 4.099-0.095 0.291 2.816 2.956 1.203 7.235-0.659 1.746-2.32 3.957-6.487 4.578v0.001c0.534 0.814 1.176 1.247 1.173 2.927v6.608c6.988-1.688 12.25-8.501 12.25-16 0-8.788-7.212-16-16-16v0z"></path>
</symbol>
<symbol id="icon-facebook" viewBox="0 0 16 32">
<path d="M14.143 15.972h-4.034v14.865h-6.112v-14.865h-2.907v-5.224h2.907v-3.381c0-2.418 1.142-6.203 6.166-6.203l4.527 0.019v5.071h-3.285c-0.539 0-1.296 0.271-1.296 1.424v3.075h4.567l-0.534 5.219z"></path>
</symbol>
<symbol id="icon-Arrow" viewBox="0 0 82 32">
<path fill="#fcfcfc" style="fill: var(--color1, #fcfcfc)" d="M81.414 17.414c0.781-0.781 0.781-2.047 0-2.828l-12.728-12.728c-0.781-0.781-2.047-0.781-2.828 0s-0.781 2.047 0 2.828l11.314 11.314-11.314 11.314c-0.781 0.781-0.781 2.047 0 2.828s2.047 0.781 2.828 0l12.728-12.728zM0 18h80v-4h-80v4z"></path>
</symbol>
</defs>
</svg>
